<?xml version="1.0" encoding="utf-8"?>
<!-- Generator: Adobe Illustrator 19.2.1, SVG Export Plug-In . SVG Version: 6.00 Build 0)  -->
<svg version="1.1" id="Capa_1" xmlns="http://www.w3.org/2000/svg" xmlns:xlink="http://www.w3.org/1999/xlink" x="0px" y="0px"
	 viewBox="0 0 512 512" style="enable-background:new 0 0 512 512;" xml:space="preserve">
<style type="text/css">
	.st0{fill:#FFFFFF;}
</style>
<path class="st0" d="M256,0C114.6,0,0,114.6,0,256s114.6,256,256,256s256-114.6,256-256S397.4,0,256,0z M406.4,219.1
	c-17,95.6-111.9,176.6-140.4,195.2c-28.5,18.5-54.6-7.4-64-27c-10.8-22.4-43.2-143.5-51.7-153.5c-8.5-10-33.9,10-33.9,10l-12.3-16.2
	c0,0,51.7-61.7,91-69.4c41.7-8.2,41.6,64,51.7,104.1c9.7,38.8,16.2,61,24.7,61c8.5,0,24.7-21.6,42.4-54.8
	c17.8-33.2-0.8-62.5-35.5-41.6C292.3,143.5,423.4,123.4,406.4,219.1z"/>
</svg>
